<svg width="124" height="26" viewBox="0 0 124 26" fill="none" xmlns="http://www.w3.org/2000/svg">
<path fill-rule="evenodd" clip-rule="evenodd" d="M15.2561 5.41562C15.2561 4.04631 14.1177 2.93628 12.7134 2.93628H2.52508C1.13054 2.93628 0 4.03865 0 5.39847V19.2999C0 20.6692 1.13839 21.7792 2.54269 21.7792H12.7134C14.1177 21.7792 15.2561 20.6692 15.2561 19.2999V5.41562ZM7.62804 17.3164C8.25955 17.3164 8.77224 17.8163 8.77224 18.4321C8.77224 19.0479 8.25955 19.5478 7.62804 19.5478C6.99654 19.5478 6.48382 19.0479 6.48382 18.4321C6.48382 17.8163 6.99654 17.3164 7.62804 17.3164ZM9.78931 15.3329C9.78931 15.3329 10.9414 15.8679 11.7319 16.235C11.8895 16.3081 12.0745 16.2974 12.2221 16.2066C12.3697 16.1157 12.4591 15.9574 12.4591 15.7873C12.4591 13.2851 12.4591 8.14287 12.4591 8.14287C12.4591 7.48531 12.1912 6.8547 11.7144 6.38974C11.2376 5.92476 10.5908 5.66356 9.91644 5.66356H5.32203C4.65234 5.66356 4.01008 5.92295 3.53652 6.38472C3.06298 6.84646 2.79696 7.47272 2.79696 8.12573V12.8536C2.79696 13.5112 3.06483 14.1418 3.5417 14.6068C4.01853 15.0717 4.66526 15.3329 5.33962 15.3329H9.78931Z" fill="#FF5144"/>
<path fill-rule="evenodd" clip-rule="evenodd" d="M35.2403 20.3253C35.2403 20.5936 35.131 20.8509 34.9365 21.0407C34.7419 21.2304 34.478 21.337 34.2028 21.337H32.4621C32.187 21.337 31.9231 21.2304 31.7285 21.0407C31.6125 20.9275 31.5268 20.7904 31.4765 20.6412C30.4911 21.0876 29.393 21.337 28.2356 21.337C23.9815 21.337 20.5278 17.9693 20.5278 13.8212C20.5278 9.67314 23.9815 6.30542 28.2356 6.30542C29.4255 6.30542 30.5529 6.56898 31.5593 7.03932C31.7128 6.8042 31.9825 6.6482 32.2895 6.6482H34.2028C34.478 6.6482 34.7419 6.75478 34.9365 6.9445C35.131 7.13422 35.2403 7.39156 35.2403 7.65986V20.3253ZM31.4866 11.1943C30.724 10.2666 29.549 9.68338 28.2356 9.68338C25.8935 9.68338 23.992 11.5375 23.992 13.8212C23.992 16.1049 25.8935 17.959 28.2356 17.959C29.5542 17.959 30.7332 17.3712 31.4955 16.4371C31.4176 16.5326 31.5029 16.4285 31.5029 16.4285L31.5176 16.4116C31.6241 16.2889 31.6909 16.0484 31.7497 15.7462C31.8547 15.2061 31.8973 14.4866 31.8881 13.7723C31.8789 13.0567 31.8175 12.3461 31.7105 11.8254C31.6515 11.5388 31.5797 11.308 31.4866 11.1943Z" fill="#3B3B3B"/>
<path fill-rule="evenodd" clip-rule="evenodd" d="M40.26 7.00224C41.2644 6.53687 42.3878 6.27637 43.5731 6.27637C47.8436 6.27637 51.3106 9.65702 51.3106 13.821C51.3106 17.9851 47.8436 21.3657 43.5731 21.3657C42.448 21.3657 41.3785 21.131 40.4138 20.7091L40.4137 23.9593C40.4137 24.2353 40.3013 24.4999 40.1012 24.6951C39.9011 24.8902 39.6296 24.9999 39.3466 24.9999H37.6059C37.3228 24.9999 37.0514 24.8902 36.8513 24.6951C36.6512 24.4999 36.5387 24.2353 36.5387 23.9593V7.65969C36.5387 7.38371 36.6512 7.11904 36.8513 6.92388C37.0514 6.72875 37.3228 6.61912 37.6059 6.61912H39.5192C39.8274 6.61912 40.0991 6.77102 40.26 7.00224ZM40.3265 11.2336L40.3281 11.2328C40.2214 11.3542 40.1504 11.5883 40.086 11.8814C39.9699 12.4095 39.9124 13.1118 39.9108 13.8138C39.9093 14.5159 39.9637 15.218 40.0768 15.7459C40.1394 16.0383 40.2087 16.2717 40.3137 16.3927L40.3284 16.4096L40.3364 16.419C41.0933 17.3463 42.2639 17.93 43.5731 17.93C45.8989 17.93 47.7871 16.0888 47.7871 13.821C47.7871 11.5532 45.8989 9.7121 43.5731 9.7121C42.2691 9.7121 41.1025 10.2911 40.3454 11.2121C40.3453 11.2122 40.3453 11.2122 40.3452 11.2123C40.339 11.2198 40.3328 11.2269 40.3265 11.2336Z" fill="#3B3B3B"/>
<path fill-rule="evenodd" clip-rule="evenodd" d="M56.2707 7.00224C57.2751 6.53687 58.3985 6.27637 59.5839 6.27637C63.8543 6.27637 67.3213 9.65702 67.3213 13.821C67.3213 17.9851 63.8543 21.3657 59.5839 21.3657C58.4587 21.3657 57.3893 21.131 56.4245 20.7091V23.9593C56.4245 24.2353 56.3121 24.4999 56.1119 24.6951C55.9118 24.8902 55.6403 24.9999 55.3573 24.9999H53.6166C53.3336 24.9999 53.0621 24.8902 52.862 24.6951C52.6619 24.4999 52.5494 24.2353 52.5494 23.9593V7.65969C52.5494 7.38371 52.6619 7.11904 52.862 6.92388C53.0621 6.72875 53.3336 6.61912 53.6166 6.61912H55.53C55.8381 6.61912 56.1098 6.77102 56.2707 7.00224ZM56.3372 11.2336L56.3389 11.2328C56.2321 11.3542 56.1611 11.5883 56.0967 11.8814C55.9807 12.4095 55.9231 13.1118 55.9216 13.8138C55.92 14.5159 55.9744 15.218 56.0875 15.7459C56.1502 16.0383 56.2194 16.2717 56.3244 16.3927L56.3391 16.4096L56.3471 16.419C57.104 17.3463 58.2747 17.93 59.5839 17.93C61.9096 17.93 63.7978 16.0888 63.7978 13.821C63.7978 11.5532 61.9096 9.7121 59.5839 9.7121C58.2798 9.7121 57.1132 10.2911 56.3561 11.2121C56.3561 11.2122 56.356 11.2122 56.3559 11.2123C56.3498 11.2198 56.3435 11.2269 56.3372 11.2336Z" fill="#3B3B3B"/>
<path fill-rule="evenodd" clip-rule="evenodd" d="M72.4173 7.65972V20.3252C72.4173 20.6011 72.3049 20.8658 72.1047 21.061C71.9046 21.2561 71.6332 21.3657 71.3501 21.3657H69.6094C69.3264 21.3657 69.055 21.2561 68.8548 21.061C68.6547 20.8658 68.5423 20.6011 68.5423 20.3252V7.65972C68.5423 7.38373 68.6547 7.11906 68.8548 6.9239C69.055 6.72878 69.3264 6.61914 69.6094 6.61914H71.3501C71.6332 6.61914 71.9046 6.72878 72.1047 6.9239C72.3049 7.11906 72.4173 7.38373 72.4173 7.65972Z" fill="#3B3B3B"/>
<path fill-rule="evenodd" clip-rule="evenodd" d="M92.6838 7.65972V20.3252C92.6838 20.6011 92.5714 20.8658 92.3712 21.061C92.1711 21.2561 91.8997 21.3657 91.6166 21.3657H89.8759C89.5929 21.3657 89.3215 21.2561 89.1213 21.061C88.9212 20.8658 88.8087 20.6011 88.8087 20.3252V7.65972C88.8087 7.38373 88.9212 7.11906 89.1213 6.9239C89.3215 6.72878 89.5929 6.61914 89.8759 6.61914H91.6166C91.8997 6.61914 92.1711 6.72878 92.3712 6.9239C92.5714 7.11906 92.6838 7.38373 92.6838 7.65972Z" fill="#3B3B3B"/>
<path fill-rule="evenodd" clip-rule="evenodd" d="M87.141 13.1396L87.4967 12.7928V21.0189C87.4967 21.2104 87.3375 21.3657 87.141 21.3657H83.9774C83.781 21.3657 83.6217 21.2104 83.6217 21.0189V12.9642C83.6217 11.1783 82.4695 9.7121 80.6381 9.7121C79.3264 9.7121 78.1904 10.4523 77.6545 11.5313V21.0189C77.6545 21.2104 77.4952 21.3657 77.2987 21.3657H74.1351C73.9387 21.3657 73.7794 21.2104 73.7794 21.0189V7.65969C73.7794 7.38371 73.8919 7.11904 74.092 6.92388C74.2921 6.72875 74.5636 6.61912 74.8466 6.61912H76.7187C76.9669 6.61912 77.2049 6.71524 77.3804 6.88637C77.4239 6.92882 77.4627 6.97505 77.4964 7.02425C78.4361 6.54481 79.5052 6.27637 80.6381 6.27637C84.3617 6.27637 87.3961 9.17605 87.4877 12.7842L87.141 13.1308V13.1396Z" fill="#3B3B3B"/>
<path fill-rule="evenodd" clip-rule="evenodd" d="M123.644 13.1396L124 12.7928V21.0189C124 21.2104 123.841 21.3657 123.644 21.3657H120.481C120.284 21.3657 120.125 21.2104 120.125 21.0189V12.9642C120.125 11.1783 118.973 9.7121 117.141 9.7121C115.83 9.7121 114.694 10.4523 114.158 11.5313V21.0189C114.158 21.2104 113.998 21.3657 113.802 21.3657H110.638C110.442 21.3657 110.283 21.2104 110.283 21.0189V7.65969C110.283 7.38371 110.395 7.11904 110.595 6.92388C110.795 6.72875 111.067 6.61912 111.35 6.61912H113.222C113.47 6.61912 113.708 6.71524 113.884 6.88637C113.927 6.92882 113.966 6.97505 114 7.02425C114.939 6.54481 116.008 6.27637 117.141 6.27637C120.865 6.27637 123.899 9.17605 123.991 12.7842L123.644 13.1308V13.1396Z" fill="#3B3B3B"/>
<path fill-rule="evenodd" clip-rule="evenodd" d="M101.495 6.58008C105.679 6.58008 109.077 9.89272 109.077 13.973C109.077 18.0532 105.679 21.3659 101.495 21.3659C97.3103 21.3659 93.913 18.0532 93.913 13.973C93.913 9.89272 97.3103 6.58008 101.495 6.58008ZM101.495 9.94671C99.2159 9.94671 97.3656 11.7508 97.3656 13.973C97.3656 16.1951 99.2159 17.9992 101.495 17.9992C103.774 17.9992 105.624 16.1951 105.624 13.973C105.624 11.7508 103.774 9.94671 101.495 9.94671Z" fill="#3B3B3B"/>
<path d="M70.394 4.71449C71.446 4.71449 72.2987 3.88298 72.2987 2.85725C72.2987 1.83152 71.446 1 70.394 1C69.3421 1 68.4893 1.83152 68.4893 2.85725C68.4893 3.88298 69.3421 4.71449 70.394 4.71449Z" fill="#3B3B3B"/>
<path d="M90.7621 4.71449C91.814 4.71449 92.6668 3.88298 92.6668 2.85725C92.6668 1.83152 91.814 1 90.7621 1C89.7101 1 88.8574 1.83152 88.8574 2.85725C88.8574 3.88298 89.7101 4.71449 90.7621 4.71449Z" fill="#3B3B3B"/>
</svg>
